<?xml version="1.0" encoding="UTF-8" standalone="no"?>
<svg width="1009px" height="32px" viewBox="0 0 1009 32" version="1.1" xmlns="http://www.w3.org/2000/svg" xmlns:xlink="http://www.w3.org/1999/xlink">
    <!-- Generator: Sketch 41.2 (35397) - http://www.bohemiancoding.com/sketch -->
    <title>DividerB_Desk</title>
    <desc>Created with Sketch.</desc>
    <defs></defs>
    <g id="Design-R3" stroke="none" stroke-width="1" fill="none" fill-rule="evenodd">
        <g id="Desktop" transform="translate(-466.000000, -3277.000000)" fill="#FFFFFF">
            <path d="M1042.88163,3299.34073 C1041.22877,3299.39866 1039.54502,3299.42827 1037.87672,3299.42827 C1024.26513,3299.42827 1010.72305,3297.53727 998.712819,3293.95866 C998.348522,3293.85053 998.206922,3293.54931 998.196624,3293.30472 C998.186326,3293.05886 998.300893,3292.74734 998.654892,3292.60831 C1005.48515,3289.90762 1012.20083,3288.09128 1018.6153,3287.2095 C1025.03234,3286.2891 1032.06084,3285.80251 1038.94129,3285.80251 C1044.36842,3285.80251 1049.5381,3286.09987 1054.31001,3286.68687 C1058.9223,3287.19663 1064.84374,3288.686 1066.35242,3291.2039 C1066.41936,3291.31589 1066.46699,3291.42402 1066.51462,3291.53344 C1060.34988,3291.51027 1053.45269,3291.33778 1044.87175,3290.99021 C1043.50724,3290.99021 1042.45812,3291.96854 1042.43237,3293.26739 C1042.41177,3294.38217 1043.23691,3295.54457 1044.95928,3295.60765 C1052.62884,3295.29484 1058.98666,3295.12492 1064.68669,3295.07729 C1063.83967,3295.66558 1062.8459,3296.15731 1061.93837,3296.47656 C1057.53977,3298.03802 1050.59366,3299.08199 1042.88163,3299.34073 L1042.88163,3299.34073 Z M983.400743,3292.30838 C978.395837,3294.40148 973.817018,3296.75203 969.791725,3299.29439 C968.347408,3300.20707 966.448684,3300.2946 964.925844,3299.5158 C962.911266,3298.48727 960.800144,3297.44201 958.610497,3296.35942 C957.333526,3295.72737 956.035957,3295.08631 954.726804,3294.43237 C959.73171,3292.33798 964.323402,3289.98485 968.383451,3287.4322 C969.830343,3286.52339 971.729066,3286.441 973.246757,3287.2198 C975.5278,3288.39121 977.990347,3289.61155 980.371797,3290.79326 L983.400743,3292.29808 L983.400743,3292.30838 Z M939.509985,3294.13115 C932.760829,3296.78679 926.034843,3298.60313 919.517395,3299.52996 C913.109365,3300.44907 906.098893,3300.93437 899.240318,3300.93437 C893.81705,3300.93437 888.649948,3300.63701 883.879325,3300.04873 C879.258026,3299.51451 873.708605,3298.10753 871.9901,3295.76212 C871.822755,3295.53428 871.713337,3295.30385 871.634813,3295.067 C871.878107,3295.06571 872.107241,3295.06185 872.35311,3295.06185 C878.869271,3295.06185 886.156506,3295.23563 895.388806,3295.60765 C897.017203,3295.54457 897.847492,3294.37831 897.826896,3293.25838 C897.80115,3291.96596 896.748164,3290.99279 895.289687,3290.99279 L895.287112,3290.99279 C886.725479,3291.34035 879.793531,3291.51284 873.587602,3291.53344 C874.313622,3291.05973 875.199264,3290.62334 876.207196,3290.26033 C880.618671,3288.69115 887.741135,3287.60341 895.258792,3287.35239 C896.813814,3287.3009 898.399731,3287.27515 899.971488,3287.27515 C913.69636,3287.27515 927.349146,3289.17902 939.450771,3292.77952 C939.816356,3292.88765 939.956668,3293.18887 939.968253,3293.43345 C939.978552,3293.67932 939.863985,3293.99213 939.509985,3294.13115 L939.509985,3294.13115 Z M1161.78289,3291.37897 C1155.73787,3291.26054 1149.66067,3290.50749 1143.78429,3289.78018 C1137.32348,3288.9795 1130.64383,3288.15178 1123.93329,3288.15178 C1119.2914,3288.15178 1114.9932,3288.54955 1110.89969,3289.36182 C1110.95633,3289.10694 1110.98078,3288.87523 1110.98722,3288.67956 C1111.03485,3287.33694 1110.33329,3286.00333 1109.24297,3285.36356 L1108.52725,3284.94262 L1107.84757,3285.42148 C1102.20675,3289.40687 1090.35357,3291.35451 1070.70211,3291.52057 C1069.87568,3285.50902 1059.59554,3283.61287 1055.54836,3282.86883 C1051.70458,3282.184 1047.33043,3281.78752 1041.78101,3281.61889 C1040.61088,3281.58928 1039.45749,3281.57512 1038.32083,3281.57512 C1031.78922,3281.57512 1025.41209,3282.03982 1018.251,3283.03746 C1007.51775,3284.5706 997.50536,3287.02413 988.486747,3290.32984 C980.594494,3286.67013 971.188412,3278.65559 970.78421,3278.30932 C969.853513,3277.5318 968.158179,3277.48804 967.174705,3278.22822 C967.114203,3278.27585 960.890253,3283.03488 956.911301,3285.4099 C953.716297,3287.38457 950.36682,3289.20863 946.95298,3290.83445 C945.309137,3290.12774 943.564886,3289.43004 941.322461,3288.58302 L940.976186,3288.45687 C935.527172,3286.47576 922.766465,3281.83644 905.755192,3281.13874 C904.298002,3281.07695 902.803482,3281.04734 901.312823,3281.04734 C886.903123,3281.04734 871.325869,3283.84844 868.011148,3291.50641 C849.268497,3291.25282 837.892892,3289.3026 832.402686,3285.42148 L831.725582,3284.94262 L831.00986,3285.36227 C829.916968,3286.00204 829.215405,3287.33565 829.26046,3288.67956 C829.268183,3288.87523 829.291354,3289.10565 829.347994,3289.36053 C825.262199,3288.54826 820.970441,3288.15178 816.333695,3288.15178 C809.633454,3288.15178 802.956385,3288.97821 796.498151,3289.7776 C790.612753,3290.50749 784.52654,3291.26054 778.491819,3291.37897 L468.135581,3291.37768 C466.747904,3291.37768 466,3292.36116 466,3293.28542 C466,3294.22383 466.749191,3295.22018 468.176774,3295.22018 L778.499542,3295.22018 C784.547137,3295.33861 790.626913,3296.09166 796.507162,3296.82026 C802.962821,3297.61965 809.638603,3298.44608 816.340131,3298.44608 C820.974303,3298.44608 825.264774,3298.0496 829.350569,3297.23862 C829.28878,3297.51281 829.264322,3297.75997 829.259173,3297.9685 C829.225704,3299.31885 829.938851,3300.63701 831.030456,3301.24975 L831.739742,3301.64752 L832.402686,3301.17767 C837.832391,3297.33903 849.03164,3295.39268 867.413855,3295.10433 C868.146312,3301.29095 878.897591,3303.1768 882.58047,3303.82301 C886.402375,3304.54002 890.78038,3304.95066 896.356833,3305.11671 C897.524387,3305.14632 898.673919,3305.16048 899.809292,3305.16048 C906.348623,3305.16048 912.739919,3304.69706 919.928034,3303.70072 C930.706346,3302.15342 940.708434,3299.69859 949.660109,3296.40704 L949.907265,3296.50488 C958.69417,3300.25083 966.952007,3307.85989 967.306006,3308.18814 C967.820914,3308.6477 968.505742,3308.9 969.233049,3308.9 C969.843215,3308.9 970.439221,3308.71206 970.942544,3308.34905 C971.888687,3307.66551 976.70179,3304.18859 978.639131,3302.93865 C982.758395,3300.28688 986.980641,3297.91959 991.191301,3295.89986 C992.829995,3296.60528 994.632173,3297.31328 996.851427,3298.12426 C1002.29787,3300.14914 1015.05214,3304.89015 1032.42771,3305.59687 C1033.88232,3305.65865 1035.36011,3305.68955 1036.86235,3305.68955 C1051.3583,3305.68955 1067.03081,3302.84983 1070.19106,3295.07601 C1090.14632,3295.21246 1102.15784,3297.15752 1107.84757,3301.17767 L1108.5118,3301.64752 L1109.22109,3301.24847 C1110.31269,3300.63573 1111.02326,3299.31756 1110.98851,3297.96722 C1110.98336,3297.75868 1110.9589,3297.51152 1110.8984,3297.23733 C1114.99063,3298.0496 1119.28625,3298.44608 1123.923,3298.44608 C1130.62324,3298.44608 1137.29516,3297.61965 1143.74695,3296.82026 C1149.63364,3296.09166 1155.72114,3295.33861 1161.75844,3295.22018 L1472.14299,3295.22147 C1473.53325,3295.22147 1474.28244,3294.22383 1474.28244,3293.28542 C1474.28244,3292.36116 1473.53325,3291.37897 1472.10309,3291.37897 L1161.78289,3291.37897 Z" id="DividerB_Desk"></path>
        </g>
    </g>
</svg>